<?xml version="1.0" encoding="utf-8"?>
<!-- Generator: Adobe Illustrator 23.0.0, SVG Export Plug-In . SVG Version: 6.00 Build 0)  -->
<svg version="1.1" xmlns="http://www.w3.org/2000/svg" xmlns:xlink="http://www.w3.org/1999/xlink" x="0px" y="0px" width="250px"
	 height="250px" viewBox="0 0 250 250" enable-background="new 0 0 250 250" xml:space="preserve">
<g id="BG">
	<rect width="250" height="250"/>
</g>
<g id="_x31_">
	<g>
		<path fill="#FFFFFF" d="M58.551,96.856c1.773,0,3.294,0.176,4.563,0.529c1.268,0.354,2.31,0.863,3.124,1.528
			c0.814,0.666,1.416,1.47,1.804,2.414c0.387,0.944,0.581,2.013,0.581,3.208c0,0.706-0.105,1.385-0.315,2.037
			s-0.532,1.26-0.966,1.823s-0.979,1.069-1.636,1.518c-0.657,0.448-1.433,0.822-2.325,1.12c4.112,0.842,6.169,3.063,6.169,6.661
			c0,1.25-0.224,2.387-0.671,3.412c-0.446,1.026-1.097,1.912-1.951,2.658c-0.854,0.747-1.905,1.324-3.153,1.731
			s-2.667,0.612-4.257,0.612H49.327V96.856H58.551z M53.524,100.257v9.574h4.829c2.063,0,3.597-0.431,4.603-1.293
			c1.005-0.862,1.508-2.027,1.508-3.494c0-1.67-0.48-2.886-1.439-3.646c-0.959-0.761-2.45-1.141-4.474-1.141H53.524z
			 M59.438,122.665c1.064,0,1.974-0.129,2.729-0.387c0.756-0.258,1.373-0.611,1.853-1.059s0.831-0.981,1.055-1.599
			c0.224-0.618,0.335-1.293,0.335-2.027c0-1.453-0.486-2.597-1.458-3.432c-0.973-0.835-2.478-1.253-4.514-1.253h-5.913v9.757H59.438
			z"/>
		<path fill="#FFFFFF" d="M83.089,126.107h-4.218V96.856h4.218V126.107z"/>
		<path fill="#FFFFFF" d="M110.208,122.461v3.646h-16.2V96.856h4.197v25.605H110.208z"/>
		<path fill="#FFFFFF" d="M142.946,111.481c0,2.187-0.34,4.176-1.016,5.968c-0.678,1.792-1.633,3.331-2.867,4.614
			c-1.236,1.284-2.715,2.278-4.436,2.984c-1.721,0.707-3.633,1.06-5.734,1.06H118.25V96.856h10.644c2.102,0,4.014,0.353,5.734,1.059
			s3.199,1.701,4.436,2.984c1.234,1.284,2.189,2.825,2.867,4.624C142.606,107.323,142.946,109.309,142.946,111.481z
			 M138.649,111.481c0-1.738-0.23-3.296-0.689-4.675c-0.461-1.378-1.115-2.546-1.963-3.504c-0.846-0.958-1.871-1.687-3.074-2.189
			c-1.201-0.502-2.545-0.754-4.029-0.754h-6.426v22.245h6.426c1.484,0,2.828-0.252,4.029-0.754c1.203-0.502,2.229-1.232,3.074-2.19
			c0.848-0.957,1.502-2.122,1.963-3.493C138.419,114.795,138.649,113.233,138.649,111.481z"/>
		<path fill="#FFFFFF" d="M169.73,122.583l-0.02,3.525h-17.542V96.856h17.542v3.524h-13.324v9.268h10.723v3.402h-10.723v9.533
			H169.73z"/>
		<path fill="#FFFFFF" d="M200.083,126.107h-3.745c-0.749,0-1.294-0.306-1.636-0.917l-6.997-10.144
			c-0.224-0.339-0.467-0.581-0.729-0.723s-0.657-0.214-1.183-0.214h-2.739v11.999h-4.198V96.856h8.16c1.826,0,3.399,0.193,4.72,0.58
			c1.321,0.387,2.411,0.937,3.272,1.65c0.86,0.713,1.498,1.572,1.911,2.577c0.414,1.005,0.621,2.132,0.621,3.381
			c0,1.019-0.151,1.976-0.453,2.872c-0.303,0.896-0.746,1.701-1.33,2.414c-0.585,0.713-1.298,1.328-2.139,1.843
			c-0.841,0.516-1.794,0.91-2.858,1.182c0.525,0.326,0.979,0.781,1.36,1.365L200.083,126.107z M186.877,110.952
			c1.078,0,2.027-0.136,2.849-0.407s1.508-0.655,2.06-1.151s0.966-1.086,1.241-1.772c0.276-0.686,0.414-1.442,0.414-2.271
			c0-1.684-0.535-2.954-1.606-3.809c-1.07-0.856-2.677-1.284-4.818-1.284h-3.962v10.694H186.877z"/>
		<path fill="#FFFFFF" d="M76.073,136.746v7.094h7.441v1.014h-7.441v7.75h-1.188v-16.871h9.784v1.014H76.073z"/>
		<path fill="#FFFFFF" d="M104.559,144.162c0,1.303-0.188,2.486-0.565,3.547s-0.907,1.967-1.592,2.719s-1.506,1.332-2.463,1.74
			c-0.958,0.41-2.014,0.615-3.167,0.615c-1.154,0-2.208-0.205-3.161-0.615c-0.954-0.408-1.773-0.988-2.458-1.74
			s-1.215-1.658-1.592-2.719s-0.565-2.244-0.565-3.547c0-1.295,0.188-2.475,0.565-3.535c0.377-1.063,0.907-1.969,1.592-2.719
			c0.685-0.752,1.504-1.334,2.458-1.748c0.953-0.412,2.007-0.619,3.161-0.619c1.153,0,2.209,0.205,3.167,0.613
			c0.957,0.41,1.778,0.992,2.463,1.748c0.685,0.754,1.215,1.662,1.592,2.725C104.37,141.688,104.559,142.867,104.559,144.162z
			 M103.336,144.162c0-1.176-0.158-2.234-0.473-3.172c-0.316-0.938-0.762-1.732-1.339-2.385s-1.269-1.15-2.076-1.496
			s-1.7-0.52-2.677-0.52c-0.97,0-1.857,0.174-2.665,0.52s-1.502,0.844-2.083,1.496s-1.03,1.447-1.35,2.385s-0.479,1.996-0.479,3.172
			c0,1.184,0.159,2.244,0.479,3.178s0.769,1.727,1.35,2.379s1.275,1.148,2.083,1.49s1.695,0.512,2.665,0.512
			c0.977,0,1.869-0.17,2.677-0.512s1.499-0.838,2.076-1.49s1.022-1.445,1.339-2.379
			C103.178,146.406,103.336,145.346,103.336,144.162z"/>
		<path fill="#FFFFFF" d="M119.546,151.566v1.037h-8.919v-16.871h1.188v15.834H119.546z"/>
		<path fill="#FFFFFF" d="M136.655,144.949v5.998c-0.815,0.596-1.685,1.053-2.607,1.371c-0.923,0.316-1.961,0.477-3.115,0.477
			c-1.292,0-2.453-0.205-3.484-0.613c-1.03-0.41-1.909-0.99-2.636-1.742c-0.727-0.75-1.285-1.658-1.673-2.725
			c-0.389-1.064-0.583-2.25-0.583-3.553c0-1.305,0.19-2.486,0.571-3.547c0.381-1.063,0.927-1.969,1.639-2.719
			c0.711-0.752,1.57-1.332,2.578-1.742c1.008-0.408,2.142-0.613,3.403-0.613c0.623,0,1.198,0.043,1.725,0.131
			c0.527,0.088,1.018,0.217,1.472,0.389c0.453,0.17,0.877,0.381,1.269,0.631c0.393,0.25,0.77,0.539,1.131,0.865l-0.323,0.523
			c-0.107,0.191-0.27,0.234-0.484,0.131c-0.115-0.047-0.281-0.158-0.496-0.332c-0.216-0.176-0.512-0.359-0.889-0.549
			c-0.377-0.191-0.844-0.361-1.401-0.514c-0.558-0.15-1.236-0.227-2.036-0.227c-1.062,0-2.021,0.176-2.879,0.525
			s-1.588,0.85-2.191,1.502c-0.604,0.652-1.069,1.447-1.396,2.385s-0.49,1.992-0.49,3.16c0,1.184,0.163,2.25,0.49,3.195
			s0.8,1.748,1.419,2.408s1.371,1.166,2.256,1.516c0.884,0.35,1.88,0.523,2.988,0.523c0.484,0,0.933-0.031,1.344-0.096
			c0.411-0.063,0.804-0.152,1.177-0.268s0.734-0.258,1.085-0.43c0.35-0.17,0.705-0.363,1.066-0.578v-4.543h-3.126
			c-0.085,0-0.156-0.027-0.214-0.084c-0.058-0.055-0.086-0.119-0.086-0.189v-0.668H136.655z"/>
		<path fill="#FFFFFF" d="M152.691,151.59l-0.023,1.014h-9.783v-16.871h9.783v1.014h-8.595v6.82h7.153v0.988h-7.153v7.035H152.691z"
			/>
		<path fill="#FFFFFF" d="M171.174,135.732v16.871h-0.554c-0.1,0-0.183-0.018-0.248-0.053c-0.065-0.037-0.129-0.098-0.19-0.186
			l-10.603-14.643c0.023,0.238,0.034,0.465,0.034,0.68v14.201h-1.038v-16.871h0.589c0.107,0,0.19,0.014,0.248,0.041
			s0.121,0.09,0.19,0.186l10.579,14.605c-0.023-0.238-0.034-0.465-0.034-0.68v-14.152H171.174z"/>
	</g>
</g>
</svg>
